<?xml version="1.0" encoding="UTF-8" standalone="no"?>
<svg
   width="297px"
   height="82px"
   viewBox="0 0 297 82"
   style="background-color: #ffffff00"
   version="1.1"
   id="svg38"
   sodipodi:docname="SN1 reaction arrow-pushing.svg"
   inkscape:version="1.3 (0e150ed6c4, 2023-07-21)"
   xmlns:inkscape="http://www.inkscape.org/namespaces/inkscape"
   xmlns:sodipodi="http://sodipodi.sourceforge.net/DTD/sodipodi-0.dtd"
   xmlns="http://www.w3.org/2000/svg"
   xmlns:svg="http://www.w3.org/2000/svg">
  <defs
     id="defs38" />
  <sodipodi:namedview
     id="namedview38"
     pagecolor="#ffffff"
     bordercolor="#000000"
     borderopacity="0.25"
     inkscape:showpageshadow="2"
     inkscape:pageopacity="0.0"
     inkscape:pagecheckerboard="0"
     inkscape:deskcolor="#d1d1d1"
     showgrid="false"
     inkscape:zoom="2.959596"
     inkscape:cx="148.5"
     inkscape:cy="41.052901"
     inkscape:window-width="1920"
     inkscape:window-height="991"
     inkscape:window-x="-9"
     inkscape:window-y="-9"
     inkscape:window-maximized="1"
     inkscape:current-layer="svg38" />
  <path
     stroke="#ff8040"
     stroke-width="12"
     fill="none"
     transform="matrix(0.0833333 0 0 0.0833333 -141.5 -521)"
     d="M 2602.71,6491.02 C 2531.78,6334.18 2601.08,6240.65 2711.08,6363.66 "
     id="path1" />
  <path
     stroke="none"
     fill="#ff8040"
     transform="matrix(0.0833333 0 0 0.0833333 -141.5 -521)"
     d="M 2678.72,6372.48 L 2711.08,6363.66 L 2723.44,6332.48 L 2765.07,6424.04 Z "
     id="path2" />
  <path
     d="m 15.722656,0 v -143.16406 h 63.476563 q 19.140625,0 29.101561,3.90625 9.96094,3.80859 15.91797,13.57422 5.95703,9.76562 5.95703,21.58203 0,15.234373 -9.86328,25.683591 -9.86328,10.449219 -30.46875,13.28125 7.519531,3.613282 11.42578,7.128907 8.30078,7.617187 15.72266,19.042968 L 141.89453,0 H 118.06641 L 99.121094,-29.785156 q -8.300782,-12.890625 -13.671875,-19.726563 -5.371094,-6.835937 -9.667969,-9.570312 -4.199219,-2.734375 -8.59375,-3.808594 -3.222656,-0.683594 -10.546875,-0.683594 H 34.667969 V 0 Z m 18.945313,-79.980469 h 40.722656 q 12.988281,0 20.3125,-2.636718 7.324215,-2.734375 11.132815,-8.59375 3.80859,-5.957032 3.80859,-12.890623 0,-10.15625 -7.42187,-16.69922 -7.324223,-6.54297 -23.242191,-6.54297 h -45.3125 z"
     id="text2"
     style="font-size:200px;font-family:Arial;fill:#ff0000"
     transform="matrix(0.0833333 0 0 0.0833333 32.512 30.5)"
     aria-label="R" />
  <path
     d="m 6.2988281,-28.344727 13.1835939,-1.757812 q 2.270508,11.206055 7.69043,16.186523 5.493164,4.9072269 13.330078,4.9072269 9.301757,0 15.673828,-6.4453129 6.445312,-6.445312 6.445312,-15.966796 0,-9.082032 -5.932617,-14.941407 -5.932617,-5.932617 -15.087891,-5.932617 -3.735351,0 -9.301757,1.464844 l 1.464843,-11.572266 q 1.31836,0.146485 2.124024,0.146485 8.422851,0 15.161133,-4.394532 6.738281,-4.394531 6.738281,-13.549804 0,-7.250977 -4.907227,-12.011719 -4.907226,-4.760742 -12.670898,-4.760742 -7.69043,0 -12.817383,4.833984 -5.126953,4.833985 -6.591797,14.501953 l -13.1835935,-2.34375 q 2.4169925,-13.256836 10.9863285,-20.507811 8.569336,-7.32422 21.313476,-7.32422 8.789063,0 16.186524,3.80859 7.397461,3.73536 11.279296,10.25391 3.955079,6.518555 3.955079,13.842773 0,6.958008 -3.735352,12.670899 -3.735352,5.712891 -11.05957,9.082031 9.521484,2.197266 14.794922,9.155274 5.273437,6.884765 5.273437,17.285156 0,14.0625 -10.253906,23.8769529 -10.253906,9.741211 -25.927735,9.741211 -14.135742,0 -23.510742,-8.4228516 Q 7.6171875,-14.941406 6.2988281,-28.344727 Z"
     id="text3"
     style="font-size:150px;font-family:Arial;fill:#ff0000"
     transform="matrix(0.0833333 0 0 0.0833333 44.5481 34.1667)"
     aria-label="3" />
  <path
     d="m 117.57813,-50.195312 18.94531,4.785156 q -5.95703,23.339844 -21.48438,35.644531 -15.429685,12.2070313 -37.792966,12.2070313 -23.144532,0 -37.695313,-9.375 Q 25.097656,-16.40625 17.480469,-34.277344 9.9609375,-52.148437 9.9609375,-72.65625 q 0,-22.363281 8.4960935,-38.96484 8.59375,-16.69922 24.316406,-25.29297 15.820313,-8.69141 34.765625,-8.69141 21.484375,0 36.132818,10.9375 14.64843,10.9375 20.41015,30.76172 l -18.65234,4.394531 q -4.98047,-15.625001 -14.45313,-22.753911 -9.472654,-7.1289 -23.828123,-7.1289 -16.503906,0 -27.636718,7.91015 -11.035157,7.91016 -15.527344,21.28907 -4.492188,13.281248 -4.492188,27.441404 0,18.261719 5.273438,31.933594 5.371094,13.574218 16.601562,20.3125 11.230469,6.738281 24.316407,6.738281 15.917968,0 26.953126,-9.179688 11.03516,-9.179687 14.94141,-27.246093 z"
     id="text4"
     style="font-size:200px;font-family:Arial;fill:#ff0000"
     transform="matrix(0.0833333 0 0 0.0833333 51.5 30.5)"
     aria-label="C" />
  <path
     d="M 14.648438,0 V -143.16406 H 33.59375 v 126.269529 h 70.50781 V 0 Z M 193.65234,-56.152344 v -16.796875 l 60.64453,-0.09766 v 53.125 Q 240.33203,-8.7890625 225.48828,-3.125 q -14.84375,5.5664063 -30.46875,5.5664063 -21.09375,0 -38.37891,-8.984375 Q 139.45312,-15.625 130.66406,-32.714844 121.875,-49.804687 121.875,-70.898437 q 0,-20.898438 8.69141,-38.964843 8.78906,-18.16406 25.19531,-26.95313 16.40625,-8.78906 37.79297,-8.78906 15.52734,0 28.02734,5.07813 12.59766,4.98047 19.72656,13.96484 7.12891,8.98437 10.83985,23.4375 l -17.08985,4.6875 q -3.22265,-10.9375 -8.00781,-17.1875 -4.78516,-6.25 -13.67187,-9.96094 -8.88672,-3.80859 -19.72657,-3.80859 -12.98828,0 -22.46093,4.0039 -9.47266,3.90625 -15.33204,10.35157 -5.76171,6.44531 -8.98437,14.16015 -5.46875,13.281254 -5.46875,28.808598 0,19.140625 6.54297,32.03125 6.64062,12.890625 19.23828,19.140625 12.59766,6.249999 26.75781,6.249999 12.30469,0 24.02344,-4.687499 11.71875,-4.785157 17.77344,-10.15625 v -26.660157 z"
     id="text5"
     style="font-size:200px;font-family:Arial;fill:#ff0000"
     transform="matrix(0.0833333 0 0 0.0833333 86.3835 30.5)"
     aria-label="LG" />
  <path
     stroke="none"
     fill="#ff0000"
     transform="matrix(0.0833333 0 0 0.0833333 -141.5 -521)"
     d="M 2484.14,6546 L 2484.14,6534 L 2717.6,6534 L 2717.6,6546 L 2484.14,6546 Z "
     id="path5" />
  <path
     stroke="none"
     fill="#000000"
     transform="matrix(0.0833333 0 0 0.0833333 -141.5 -521)"
     d="M 3620,6540.75 L 3139.61,6540.75 L 3139.61,6528.75 L 3620,6528.75 Z "
     id="path6" />
  <path
     stroke="none"
     fill="#000000"
     transform="matrix(0.0833333 0 0 0.0833333 -141.5 -521)"
     d="M 3724,6534.75 C 3724,6534.75 3604,6565.75 3604,6565.75 C 3604,6565.75 3619,6548.31 3619,6534.75 C 3619,6520.75 3604,6502.75 3604,6502.75 C 3604,6502.75 3724,6534.75 3724,6534.75 C 3724,6534.75 3724,6534.75 3724,6534.75 "
     id="path7" />
  <path
     stroke="#000000"
     stroke-width="1"
     fill="none"
     transform="matrix(0.0833333 0 0 0.0833333 -141.5 -521)"
     d="M 3724,6534.75 C 3724,6534.75 3604,6565.75 3604,6565.75 C 3604,6565.75 3619,6548.31 3619,6534.75 C 3619,6520.75 3604,6502.75 3604,6502.75 C 3604,6502.75 3724,6534.75 3724,6534.75 C 3724,6534.75 3724,6534.75 3724,6534.75 "
     id="path8" />
  <path
     d="m 15.722656,0 v -143.16406 h 63.476563 q 19.140625,0 29.101561,3.90625 9.96094,3.80859 15.91797,13.57422 5.95703,9.76562 5.95703,21.58203 0,15.234373 -9.86328,25.683591 -9.86328,10.449219 -30.46875,13.28125 7.519531,3.613282 11.42578,7.128907 8.30078,7.617187 15.72266,19.042968 L 141.89453,0 H 118.06641 L 99.121094,-29.785156 q -8.300782,-12.890625 -13.671875,-19.726563 -5.371094,-6.835937 -9.667969,-9.570312 -4.199219,-2.734375 -8.59375,-3.808594 -3.222656,-0.683594 -10.546875,-0.683594 H 34.667969 V 0 Z m 18.945313,-79.980469 h 40.722656 q 12.988281,0 20.3125,-2.636718 7.324215,-2.734375 11.132815,-8.59375 3.80859,-5.957032 3.80859,-12.890623 0,-10.15625 -7.42187,-16.69922 -7.324223,-6.54297 -23.242191,-6.54297 h -45.3125 z"
     id="text8"
     style="font-size:200px;font-family:Arial;fill:#ff0000"
     transform="matrix(0.0833333 0 0 0.0833333 181.833 30.5)"
     aria-label="R" />
  <path
     d="m 6.2988281,-28.344727 13.1835939,-1.757812 q 2.270508,11.206055 7.69043,16.186523 5.493164,4.9072269 13.330078,4.9072269 9.301757,0 15.673828,-6.4453129 6.445312,-6.445312 6.445312,-15.966796 0,-9.082032 -5.932617,-14.941407 -5.932617,-5.932617 -15.087891,-5.932617 -3.735351,0 -9.301757,1.464844 l 1.464843,-11.572266 q 1.31836,0.146485 2.124024,0.146485 8.422851,0 15.161133,-4.394532 6.738281,-4.394531 6.738281,-13.549804 0,-7.250977 -4.907227,-12.011719 -4.907226,-4.760742 -12.670898,-4.760742 -7.69043,0 -12.817383,4.833984 -5.126953,4.833985 -6.591797,14.501953 l -13.1835935,-2.34375 q 2.4169925,-13.256836 10.9863285,-20.507811 8.569336,-7.32422 21.313476,-7.32422 8.789063,0 16.186524,3.80859 7.397461,3.73536 11.279296,10.25391 3.955079,6.518555 3.955079,13.842773 0,6.958008 -3.735352,12.670899 -3.735352,5.712891 -11.05957,9.082031 9.521484,2.197266 14.794922,9.155274 5.273437,6.884765 5.273437,17.285156 0,14.0625 -10.253906,23.8769529 -10.253906,9.741211 -25.927735,9.741211 -14.135742,0 -23.510742,-8.4228516 Q 7.6171875,-14.941406 6.2988281,-28.344727 Z"
     id="text9"
     style="font-size:150px;font-family:Arial;fill:#ff0000"
     transform="matrix(0.0833333 0 0 0.0833333 193.869 34.1667)"
     aria-label="3" />
  <path
     d="m 117.57813,-50.195312 18.94531,4.785156 q -5.95703,23.339844 -21.48438,35.644531 -15.429685,12.2070313 -37.792966,12.2070313 -23.144532,0 -37.695313,-9.375 Q 25.097656,-16.40625 17.480469,-34.277344 9.9609375,-52.148437 9.9609375,-72.65625 q 0,-22.363281 8.4960935,-38.96484 8.59375,-16.69922 24.316406,-25.29297 15.820313,-8.69141 34.765625,-8.69141 21.484375,0 36.132818,10.9375 14.64843,10.9375 20.41015,30.76172 l -18.65234,4.394531 q -4.98047,-15.625001 -14.45313,-22.753911 -9.472654,-7.1289 -23.828123,-7.1289 -16.503906,0 -27.636718,7.91015 -11.035157,7.91016 -15.527344,21.28907 -4.492188,13.281248 -4.492188,27.441404 0,18.261719 5.273438,31.933594 5.371094,13.574218 16.601562,20.3125 11.230469,6.738281 24.316407,6.738281 15.917968,0 26.953126,-9.179688 11.03516,-9.179687 14.94141,-27.246093 z"
     id="text10"
     style="font-size:200px;font-family:Arial;fill:#ff0000"
     transform="matrix(0.0833333 0 0 0.0833333 200.821 30.5)"
     aria-label="C" />
  <path
     d="M 14.648438,0 V -143.16406 H 33.59375 v 126.269529 h 70.50781 V 0 Z M 193.65234,-56.152344 v -16.796875 l 60.64453,-0.09766 v 53.125 Q 240.33203,-8.7890625 225.48828,-3.125 q -14.84375,5.5664063 -30.46875,5.5664063 -21.09375,0 -38.37891,-8.984375 Q 139.45312,-15.625 130.66406,-32.714844 121.875,-49.804687 121.875,-70.898437 q 0,-20.898438 8.69141,-38.964843 8.78906,-18.16406 25.19531,-26.95313 16.40625,-8.78906 37.79297,-8.78906 15.52734,0 28.02734,5.07813 12.59766,4.98047 19.72656,13.96484 7.12891,8.98437 10.83985,23.4375 l -17.08985,4.6875 q -3.22265,-10.9375 -8.00781,-17.1875 -4.78516,-6.25 -13.67187,-9.96094 -8.88672,-3.80859 -19.72657,-3.80859 -12.98828,0 -22.46093,4.0039 -9.47266,3.90625 -15.33204,10.35157 -5.76171,6.44531 -8.98437,14.16015 -5.46875,13.281254 -5.46875,28.808598 0,19.140625 6.54297,32.03125 6.64062,12.890625 19.23828,19.140625 12.59766,6.249999 26.75781,6.249999 12.30469,0 24.02344,-4.687499 11.71875,-4.785157 17.77344,-10.15625 v -26.660157 z"
     id="text11"
     style="font-size:200px;font-family:Arial;fill:#ff0000"
     transform="matrix(0.0833333 0 0 0.0833333 258.217 30.5)"
     aria-label="LG" />
  <path
     stroke="#ff0000"
     stroke-width="10"
     fill="none"
     transform="matrix(0.0833333 0 0 0.0833333 -141.5 -521)"
     d="M 4277.55,6444.64 A 71.7999,71.7999 0 1 0 4421.15,6444.64A 71.7999,71.7999 0 1 0 4277.55,6444.64Z "
     id="path11" />
  <path
     stroke="none"
     fill="#ff0000"
     transform="matrix(0.0833333 0 0 0.0833333 -141.5 -521)"
     d="M 4309.69,6439.3 L 4388.35,6439.3 L 4388.35,6449.3 L 4309.69,6449.3 Z "
     id="path12" />
  <path
     stroke="none"
     fill="#ff0000"
     transform="matrix(0.0833333 0 0 0.0833333 -141.5 -521)"
     d="M 4354.02,6404.97 L 4354.02,6483.64 L 4344.02,6483.64 L 4344.02,6404.97 Z "
     id="path13" />
  <path
     stroke="#ff0000"
     stroke-width="10"
     fill="none"
     transform="matrix(0.0833333 0 0 0.0833333 -141.5 -521)"
     d="M 5060.05,6455.04 A 71.7999,71.7999 0 1 0 5203.65,6455.04A 71.7999,71.7999 0 1 0 5060.05,6455.04Z "
     id="path14" />
  <path
     stroke="none"
     fill="#ff0000"
     transform="matrix(0.0833333 0 0 0.0833333 -141.5 -521)"
     d="M 5092.18,6449.7 L 5170.85,6449.7 L 5170.85,6459.7 L 5092.18,6459.7 Z "
     id="path15" />
  <path
     stroke="none"
     fill="#000000"
     transform="matrix(0.0833333 0 0 0.0833333 -141.5 -521)"
     d="M 4472.67,6548.25 L 4551.33,6548.25 L 4551.33,6558.25 L 4472.67,6558.25 Z "
     id="path16" />
  <path
     stroke="none"
     fill="#000000"
     transform="matrix(0.0833333 0 0 0.0833333 -141.5 -521)"
     d="M 4517,6513.92 L 4517,6592.58 L 4507,6592.58 L 4507,6513.92 Z "
     id="path17" />
  <path
     d="m 15.722656,0 v -143.16406 h 63.476563 q 19.140625,0 29.101561,3.90625 9.96094,3.80859 15.91797,13.57422 5.95703,9.76562 5.95703,21.58203 0,15.234373 -9.86328,25.683591 -9.86328,10.449219 -30.46875,13.28125 7.519531,3.613282 11.42578,7.128907 8.30078,7.617187 15.72266,19.042968 L 141.89453,0 H 118.06641 L 99.121094,-29.785156 q -8.300782,-12.890625 -13.671875,-19.726563 -5.371094,-6.835937 -9.667969,-9.570312 -4.199219,-2.734375 -8.59375,-3.808594 -3.222656,-0.683594 -10.546875,-0.683594 H 34.667969 V 0 Z m 18.945313,-79.980469 h 40.722656 q 12.988281,0 20.3125,-2.636718 7.324215,-2.734375 11.132815,-8.59375 3.80859,-5.957032 3.80859,-12.890623 0,-10.15625 -7.42187,-16.69922 -7.324223,-6.54297 -23.242191,-6.54297 h -45.3125 z"
     id="text17"
     style="font-size:200px;font-family:Arial;fill:#ff0000"
     transform="matrix(0.0833333 0 0 0.0833333 3.66664 67)"
     aria-label="R" />
  <path
     d="m 6.2988281,-28.344727 13.1835939,-1.757812 q 2.270508,11.206055 7.69043,16.186523 5.493164,4.9072269 13.330078,4.9072269 9.301757,0 15.673828,-6.4453129 6.445312,-6.445312 6.445312,-15.966796 0,-9.082032 -5.932617,-14.941407 -5.932617,-5.932617 -15.087891,-5.932617 -3.735351,0 -9.301757,1.464844 l 1.464843,-11.572266 q 1.31836,0.146485 2.124024,0.146485 8.422851,0 15.161133,-4.394532 6.738281,-4.394531 6.738281,-13.549804 0,-7.250977 -4.907227,-12.011719 -4.907226,-4.760742 -12.670898,-4.760742 -7.69043,0 -12.817383,4.833984 -5.126953,4.833985 -6.591797,14.501953 l -13.1835935,-2.34375 q 2.4169925,-13.256836 10.9863285,-20.507811 8.569336,-7.32422 21.313476,-7.32422 8.789063,0 16.186524,3.80859 7.397461,3.73536 11.279296,10.25391 3.955079,6.518555 3.955079,13.842773 0,6.958008 -3.735352,12.670899 -3.735352,5.712891 -11.05957,9.082031 9.521484,2.197266 14.794922,9.155274 5.273437,6.884765 5.273437,17.285156 0,14.0625 -10.253906,23.8769529 -10.253906,9.741211 -25.927735,9.741211 -14.135742,0 -23.510742,-8.4228516 Q 7.6171875,-14.941406 6.2988281,-28.344727 Z"
     id="text18"
     style="font-size:150px;font-family:Arial;fill:#ff0000"
     transform="matrix(0.0833333 0 0 0.0833333 15.7028 70.6667)"
     aria-label="3" />
  <path
     d="m 117.57813,-50.195312 18.94531,4.785156 q -5.95703,23.339844 -21.48438,35.644531 -15.429685,12.2070313 -37.792966,12.2070313 -23.144532,0 -37.695313,-9.375 Q 25.097656,-16.40625 17.480469,-34.277344 9.9609375,-52.148437 9.9609375,-72.65625 q 0,-22.363281 8.4960935,-38.96484 8.59375,-16.69922 24.316406,-25.29297 15.820313,-8.69141 34.765625,-8.69141 21.484375,0 36.132818,10.9375 14.64843,10.9375 20.41015,30.76172 l -18.65234,4.394531 q -4.98047,-15.625001 -14.45313,-22.753911 -9.472654,-7.1289 -23.828123,-7.1289 -16.503906,0 -27.636718,7.91015 -11.035157,7.91016 -15.527344,21.28907 -4.492188,13.281248 -4.492188,27.441404 0,18.261719 5.273438,31.933594 5.371094,13.574218 16.601562,20.3125 11.230469,6.738281 24.316407,6.738281 15.917968,0 26.953126,-9.179688 11.03516,-9.179687 14.94141,-27.246093 z"
     id="text19"
     style="font-size:200px;font-family:Arial;fill:#ff0000"
     transform="matrix(0.0833333 0 0 0.0833333 22.6547 67)"
     aria-label="C" />
  <path
     stroke="#ff0000"
     stroke-width="10"
     fill="none"
     transform="matrix(0.0833333 0 0 0.0833333 -141.5 -521)"
     d="M 2139.55,6882.64 A 71.7999,71.7999 0 1 0 2283.15,6882.64A 71.7999,71.7999 0 1 0 2139.55,6882.64Z "
     id="path19" />
  <path
     stroke="none"
     fill="#ff0000"
     transform="matrix(0.0833333 0 0 0.0833333 -141.5 -521)"
     d="M 2171.69,6877.3 L 2250.35,6877.3 L 2250.35,6887.3 L 2171.69,6887.3 Z "
     id="path20" />
  <path
     stroke="none"
     fill="#ff0000"
     transform="matrix(0.0833333 0 0 0.0833333 -141.5 -521)"
     d="M 2216.02,6842.97 L 2216.02,6921.64 L 2206.02,6921.64 L 2206.02,6842.97 Z "
     id="path21" />
  <path
     d="M 15.234375,0 V -143.16406 H 34.667969 L 109.86328,-30.761719 V -143.16406 h 18.16406 V 0 H 108.59375 L 33.398437,-112.5 V 0 Z M 225.58594,0 V -15.234375 Q 213.47656,2.34375 192.67578,2.34375 q -9.17969,0 -17.1875,-3.515625 -7.91016,-3.515625 -11.81641,-8.7890625 -3.80859,-5.3710935 -5.37109,-13.0859375 -1.07422,-5.175781 -1.07422,-16.40625 v -64.257815 h 17.57813 v 57.519534 q 0,13.769531 1.07422,18.554687 1.66015,6.933594 7.03125,10.9375 5.37109,3.90625 13.28125,3.90625 7.91015,0 14.84375,-4.003906 6.93359,-4.101562 9.76562,-11.035156 2.92969,-7.03125 2.92969,-20.3125 v -55.566409 h 17.57812 V 0 Z"
     id="text21"
     style="font-size:200px;font-family:Arial;fill:#ff0000"
     transform="matrix(0.0833333 0 0 0.0833333 83.25 67.75)"
     aria-label="Nu" />
  <path
     stroke="none"
     fill="#000000"
     transform="matrix(0.0833333 0 0 0.0833333 -141.5 -521)"
     d="M 2348.67,6992.25 L 2427.33,6992.25 L 2427.33,7002.25 L 2348.67,7002.25 Z "
     id="path22" />
  <path
     stroke="none"
     fill="#000000"
     transform="matrix(0.0833333 0 0 0.0833333 -141.5 -521)"
     d="M 2393,6957.92 L 2393,7036.58 L 2383,7036.58 L 2383,6957.92 Z "
     id="path23" />
  <path
     stroke="#ff0000"
     stroke-width="10"
     fill="none"
     transform="matrix(0.0833333 0 0 0.0833333 -141.5 -521)"
     d="M 2942.55,6870.04 A 71.7999,71.7999 0 1 0 3086.15,6870.04A 71.7999,71.7999 0 1 0 2942.55,6870.04Z "
     id="path24" />
  <path
     stroke="none"
     fill="#ff0000"
     transform="matrix(0.0833333 0 0 0.0833333 -141.5 -521)"
     d="M 2974.68,6864.7 L 3053.35,6864.7 L 3053.35,6874.7 L 2974.68,6874.7 Z "
     id="path25" />
  <path
     stroke="none"
     fill="#000000"
     transform="matrix(0.0833333 0 0 0.0833333 -141.5 -521)"
     d="M 3620,6986.75 L 3139.61,6986.75 L 3139.61,6974.75 L 3620,6974.75 Z "
     id="path26" />
  <path
     stroke="none"
     fill="#000000"
     transform="matrix(0.0833333 0 0 0.0833333 -141.5 -521)"
     d="M 3724,6980.75 C 3724,6980.75 3604,7011.75 3604,7011.75 C 3604,7011.75 3619,6994.31 3619,6980.75 C 3619,6966.75 3604,6948.75 3604,6948.75 C 3604,6948.75 3724,6980.75 3724,6980.75 C 3724,6980.75 3724,6980.75 3724,6980.75 "
     id="path27" />
  <path
     stroke="#000000"
     stroke-width="1"
     fill="none"
     transform="matrix(0.0833333 0 0 0.0833333 -141.5 -521)"
     d="M 3724,6980.75 C 3724,6980.75 3604,7011.75 3604,7011.75 C 3604,7011.75 3619,6994.31 3619,6980.75 C 3619,6966.75 3604,6948.75 3604,6948.75 C 3604,6948.75 3724,6980.75 3724,6980.75 C 3724,6980.75 3724,6980.75 3724,6980.75 "
     id="path28" />
  <path
     stroke="none"
     fill="#ff0000"
     transform="matrix(0.0833333 0 0 0.0833333 -141.5 -521)"
     d="M 4707.07,6497.44 A 23.5833,23.5833 0 1 0 4754.24,6497.44A 23.5833,23.5833 0 1 0 4707.07,6497.44Z "
     id="path29" />
  <path
     stroke="none"
     fill="#ff0000"
     transform="matrix(0.0833333 0 0 0.0833333 -141.5 -521)"
     d="M 4707.07,6603.56 A 23.5833,23.5833 0 1 0 4754.24,6603.56A 23.5833,23.5833 0 1 0 4707.07,6603.56Z "
     id="path30" />
  <path
     stroke="none"
     fill="#ff0000"
     transform="matrix(0.0833333 0 0 0.0833333 -141.5 -521)"
     d="M 2613.07,6941.44 A 23.5833,23.5833 0 1 0 2660.24,6941.44A 23.5833,23.5833 0 1 0 2613.07,6941.44Z "
     id="path31" />
  <path
     stroke="none"
     fill="#ff0000"
     transform="matrix(0.0833333 0 0 0.0833333 -141.5 -521)"
     d="M 2613.07,7047.56 A 23.5833,23.5833 0 1 0 2660.24,7047.56A 23.5833,23.5833 0 1 0 2613.07,7047.56Z "
     id="path32" />
  <path
     stroke="#000000"
     stroke-width="12"
     fill="none"
     transform="matrix(0.0833333 0 0 0.0833333 -141.5 -521)"
     d="M 2638.5,7102.5 "
     id="path33" />
  <path
     stroke="#ff8040"
     stroke-width="12"
     fill="none"
     transform="matrix(0.0833333 0 0 0.0833333 -141.5 -521)"
     d="M 2635.5,7097.93 C 2549.2,7305.6 2480.42,7041.29 2218.81,7033.2 "
     id="path34" />
  <path
     stroke="none"
     fill="#ff8040"
     transform="matrix(0.0833333 0 0 0.0833333 -141.5 -521)"
     d="M 2234.73,7003.68 L 2218.81,7033.2 L 2232.88,7063.65 L 2137.85,7030.7 Z "
     id="path35" />
  <path
     d="m 15.722656,0 v -143.16406 h 63.476563 q 19.140625,0 29.101561,3.90625 9.96094,3.80859 15.91797,13.57422 5.95703,9.76562 5.95703,21.58203 0,15.234373 -9.86328,25.683591 -9.86328,10.449219 -30.46875,13.28125 7.519531,3.613282 11.42578,7.128907 8.30078,7.617187 15.72266,19.042968 L 141.89453,0 H 118.06641 L 99.121094,-29.785156 q -8.300782,-12.890625 -13.671875,-19.726563 -5.371094,-6.835937 -9.667969,-9.570312 -4.199219,-2.734375 -8.59375,-3.808594 -3.222656,-0.683594 -10.546875,-0.683594 H 34.667969 V 0 Z m 18.945313,-79.980469 h 40.722656 q 12.988281,0 20.3125,-2.636718 7.324215,-2.734375 11.132815,-8.59375 3.80859,-5.957032 3.80859,-12.890623 0,-10.15625 -7.42187,-16.69922 -7.324223,-6.54297 -23.242191,-6.54297 h -45.3125 z"
     id="text35"
     style="font-size:200px;font-family:Arial;fill:#ff0000"
     transform="matrix(0.0833333 0 0 0.0833333 182.179 67.8333)"
     aria-label="R" />
  <path
     d="m 6.2988281,-28.344727 13.1835939,-1.757812 q 2.270508,11.206055 7.69043,16.186523 5.493164,4.9072269 13.330078,4.9072269 9.301757,0 15.673828,-6.4453129 6.445312,-6.445312 6.445312,-15.966796 0,-9.082032 -5.932617,-14.941407 -5.932617,-5.932617 -15.087891,-5.932617 -3.735351,0 -9.301757,1.464844 l 1.464843,-11.572266 q 1.31836,0.146485 2.124024,0.146485 8.422851,0 15.161133,-4.394532 6.738281,-4.394531 6.738281,-13.549804 0,-7.250977 -4.907227,-12.011719 -4.907226,-4.760742 -12.670898,-4.760742 -7.69043,0 -12.817383,4.833984 -5.126953,4.833985 -6.591797,14.501953 l -13.1835935,-2.34375 q 2.4169925,-13.256836 10.9863285,-20.507811 8.569336,-7.32422 21.313476,-7.32422 8.789063,0 16.186524,3.80859 7.397461,3.73536 11.279296,10.25391 3.955079,6.518555 3.955079,13.842773 0,6.958008 -3.735352,12.670899 -3.735352,5.712891 -11.05957,9.082031 9.521484,2.197266 14.794922,9.155274 5.273437,6.884765 5.273437,17.285156 0,14.0625 -10.253906,23.8769529 -10.253906,9.741211 -25.927735,9.741211 -14.135742,0 -23.510742,-8.4228516 Q 7.6171875,-14.941406 6.2988281,-28.344727 Z"
     id="text36"
     style="font-size:150px;font-family:Arial;fill:#ff0000"
     transform="matrix(0.0833333 0 0 0.0833333 194.215 71.5)"
     aria-label="3" />
  <path
     d="m 117.57813,-50.195312 18.94531,4.785156 q -5.95703,23.339844 -21.48438,35.644531 -15.429685,12.2070313 -37.792966,12.2070313 -23.144532,0 -37.695313,-9.375 Q 25.097656,-16.40625 17.480469,-34.277344 9.9609375,-52.148437 9.9609375,-72.65625 q 0,-22.363281 8.4960935,-38.96484 8.59375,-16.69922 24.316406,-25.29297 15.820313,-8.69141 34.765625,-8.69141 21.484375,0 36.132818,10.9375 14.64843,10.9375 20.41015,30.76172 l -18.65234,4.394531 q -4.98047,-15.625001 -14.45313,-22.753911 -9.472654,-7.1289 -23.828123,-7.1289 -16.503906,0 -27.636718,7.91015 -11.035157,7.91016 -15.527344,21.28907 -4.492188,13.281248 -4.492188,27.441404 0,18.261719 5.273438,31.933594 5.371094,13.574218 16.601562,20.3125 11.230469,6.738281 24.316407,6.738281 15.917968,0 26.953126,-9.179688 11.03516,-9.179687 14.94141,-27.246093 z"
     id="text37"
     style="font-size:200px;font-family:Arial;fill:#ff0000"
     transform="matrix(0.0833333 0 0 0.0833333 201.167 67.8333)"
     aria-label="C" />
  <path
     d="M 15.234375,0 V -143.16406 H 34.667969 L 109.86328,-30.761719 V -143.16406 h 18.16406 V 0 H 108.59375 L 33.398437,-112.5 V 0 Z M 225.58594,0 V -15.234375 Q 213.47656,2.34375 192.67578,2.34375 q -9.17969,0 -17.1875,-3.515625 -7.91016,-3.515625 -11.81641,-8.7890625 -3.80859,-5.3710935 -5.37109,-13.0859375 -1.07422,-5.175781 -1.07422,-16.40625 v -64.257815 h 17.57813 v 57.519534 q 0,13.769531 1.07422,18.554687 1.66015,6.933594 7.03125,10.9375 5.37109,3.90625 13.28125,3.90625 7.91015,0 14.84375,-4.003906 6.93359,-4.101562 9.76562,-11.035156 2.92969,-7.03125 2.92969,-20.3125 v -55.566409 h 17.57812 V 0 Z"
     id="text38"
     style="font-size:200px;font-family:Arial;fill:#ff0000"
     transform="matrix(0.0833333 0 0 0.0833333 234.667 67.8333)"
     aria-label="Nu" />
  <path
     stroke="none"
     fill="#ff0000"
     transform="matrix(0.0833333 0 0 0.0833333 -141.5 -521)"
     d="M 4280.14,6994 L 4280.14,6982 L 4498,6982 L 4498,6994 L 4280.14,6994 Z "
     id="path38" />
</svg>
